# xmcd
# 
# Track frame offsets:
#     150
#     27286
#     71213
#     98992
#     159058
#     189585
# 
# Disc length: 3340
# 
# Revision: 1
# Processed by: cddbd v1.5.2PL0 Copyright (c) Steve Scherf et al.
# Submitted via: BonkEnc v1.0.8
# 
DISCID=470d0a06
DTITLE=Atomic - The Bikini Tapes - Disc 3
DYEAR=2004
DGENRE=Contemporary Jazz
TTITLE0=Toner Fran Forr
TTITLE1=Alla Dansar Samba Till Tyst Musik
TTITLE2=Hyper
TTITLE3=Kerosene
TTITLE4=Re-Lee
TTITLE5=Boom Boom
EXTD=YEAR: 2004
EXTT0=
EXTT1=
EXTT2=
EXTT3=
EXTT4=
EXTT5=
PLAYORDER=
